<svg width="31" height="28" viewBox="0 0 31 28" fill="none" xmlns="http://www.w3.org/2000/svg">
    <path d="M23.25 1C26.971 1 30 4.05464 30 7.875C30 9.30241 29.5775 10.6154 28.8584 11.6963L28.8564 11.7002C28.5564 12.1556 27.5534 13.342 26.1367 14.9414C24.7469 16.5105 23.0211 18.4075 21.3359 20.2422C19.6513 22.0763 18.0095 23.8452 16.7891 25.1553C16.2753 25.7067 15.8361 26.1766 15.5 26.5361C15.1639 26.1766 14.7247 25.7067 14.2109 25.1553C12.9905 23.8452 11.3487 22.0763 9.66406 20.2422C7.97893 18.4075 6.25311 16.5105 4.86328 14.9414C3.44655 13.342 2.44359 12.1556 2.14355 11.7002L2.1416 11.6963L2.00977 11.4902C1.37101 10.4503 1 9.21298 1 7.875C1 4.05464 4.02898 1 7.75 1C10.046 1 12.0287 2.25391 13.3867 4.09375L13.3906 4.09863C14.0447 4.97309 14.3714 5.411 14.5352 5.62988C14.6167 5.73896 14.6582 5.79387 14.6787 5.82129C14.6889 5.83488 14.6937 5.84226 14.6963 5.8457C14.6976 5.84741 14.6989 5.8482 14.6992 5.84863V5.84961C15.0521 6.14455 15.5 6.24994 15.5 5.25V6.25H16.001L16.3008 5.84863H16.3018L16.3027 5.84668V5.8457L16.3037 5.84473H16.3047L16.3057 5.84277V5.8418L16.3066 5.84082H16.3076V5.83984L16.3086 5.83887V5.83789H16.3096V5.83691L16.3115 5.83496V5.83398L16.3125 5.83301L16.3145 5.83105V5.83008H16.3154V5.8291L16.3164 5.82812V5.82715H16.3174V5.82617H16.3184V5.8252L16.3203 5.82324V5.82227L16.3223 5.82031V5.81934H16.3232L16.3242 5.81836V5.81738L16.3262 5.81543V5.81445L16.3291 5.81152V5.81055L16.332 5.80762V5.80664L16.334 5.80469V5.80371L16.3389 5.79883V5.79785L16.3418 5.79492V5.79395L16.3428 5.79199L16.3467 5.78809V5.78711L16.3496 5.78418L16.3506 5.78223L16.3535 5.7793V5.77832L16.3545 5.77637L16.3564 5.77441L16.3574 5.77246L16.3594 5.77051L16.3604 5.76855L16.3623 5.7666L16.3633 5.76465L16.3652 5.7627L16.3662 5.76074L16.3682 5.75977L16.3691 5.75781L16.3701 5.75684L16.3711 5.75488L16.3721 5.75391L16.373 5.75195L16.374 5.75098L16.375 5.74902L16.377 5.74805L16.3779 5.74609L16.3789 5.74512L16.3809 5.74121L16.3828 5.74023L16.3848 5.73633L16.3877 5.7334L16.3896 5.72949L16.3926 5.72656L16.3936 5.72461L16.3955 5.72266L16.3965 5.7207L16.3994 5.71777L16.4014 5.71387L16.4033 5.71191L16.4043 5.70996L16.4062 5.70801L16.4072 5.70605L16.4092 5.7041L16.4102 5.70215L16.4121 5.7002L16.4131 5.69824L16.415 5.69629L16.416 5.69434L16.4199 5.69043L16.4209 5.68848L16.4229 5.68652L16.4238 5.68359L16.4277 5.67969L16.4287 5.67773L16.4307 5.67578L16.4326 5.67285L16.4336 5.6709L16.4355 5.66895L16.4375 5.66602L16.4395 5.66406L16.4404 5.66211L16.4424 5.65918L16.4463 5.65527L16.4473 5.65234L16.4492 5.65039C16.4498 5.64959 16.4506 5.64827 16.4512 5.64746L16.4531 5.64551C16.4537 5.64469 16.4545 5.6434 16.4551 5.64258L16.457 5.64062C16.4577 5.6398 16.4584 5.63853 16.459 5.6377L16.4609 5.63574L16.4648 5.62988L16.4668 5.62793L16.4707 5.62207L16.4727 5.62012L16.4785 5.61133L16.4805 5.60938L16.4902 5.59473C16.4909 5.59384 16.4925 5.59366 16.4932 5.59277L16.501 5.58105C16.5017 5.5801 16.5032 5.57909 16.5039 5.57812L16.5078 5.57227C16.5086 5.57127 16.51 5.56937 16.5107 5.56836L16.5146 5.5625C16.5154 5.56149 16.5168 5.56059 16.5176 5.55957L16.5215 5.55371C16.5223 5.55267 16.5236 5.55086 16.5244 5.5498C16.5251 5.54889 16.5257 5.54779 16.5264 5.54688C16.5271 5.54584 16.5285 5.54499 16.5293 5.54395C16.53 5.54301 16.5305 5.54196 16.5312 5.54102C16.5321 5.53994 16.5334 5.53819 16.5342 5.53711C16.5349 5.53618 16.5354 5.53512 16.5361 5.53418C16.5369 5.53309 16.5382 5.53234 16.5391 5.53125C16.5399 5.53016 16.5402 5.52844 16.541 5.52734C16.5418 5.52629 16.5432 5.52547 16.5439 5.52441C16.5447 5.52334 16.5451 5.52159 16.5459 5.52051C16.5467 5.51946 16.548 5.51864 16.5488 5.51758C16.5495 5.51664 16.5501 5.51559 16.5508 5.51465C16.5516 5.51351 16.5529 5.51188 16.5537 5.51074C16.5545 5.50965 16.5558 5.50891 16.5566 5.50781C16.5575 5.50671 16.5578 5.50502 16.5586 5.50391C16.5595 5.50275 16.5607 5.50117 16.5615 5.5C16.5623 5.49893 16.5636 5.49815 16.5645 5.49707C16.5653 5.49593 16.5655 5.49432 16.5664 5.49316C16.5672 5.49208 16.5685 5.49132 16.5693 5.49023L16.5752 5.48242C16.5759 5.48149 16.5764 5.48043 16.5771 5.47949L16.5889 5.46387C16.5897 5.46278 16.591 5.46204 16.5918 5.46094C16.5926 5.45981 16.5929 5.45817 16.5938 5.45703L16.626 5.41406C16.627 5.41271 16.6289 5.41054 16.6299 5.40918L16.6387 5.39746C16.6397 5.39608 16.6406 5.39397 16.6416 5.39258C16.6426 5.39128 16.6436 5.38998 16.6445 5.38867C16.6456 5.38727 16.6474 5.38618 16.6484 5.38477C16.6494 5.38347 16.6504 5.38217 16.6514 5.38086C16.6524 5.37944 16.6532 5.37741 16.6543 5.37598C16.6553 5.37468 16.6562 5.37338 16.6572 5.37207C16.6583 5.37063 16.6601 5.36863 16.6611 5.36719C16.6621 5.36589 16.6631 5.36459 16.6641 5.36328C16.6652 5.36183 16.6659 5.35986 16.667 5.3584C16.6681 5.35694 16.6698 5.35596 16.6709 5.35449C16.672 5.35302 16.6727 5.35109 16.6738 5.34961C16.6749 5.34816 16.6766 5.34716 16.6777 5.3457C16.6788 5.34422 16.6796 5.34231 16.6807 5.34082C16.6818 5.33936 16.6835 5.33838 16.6846 5.33691L16.6904 5.32715C16.6915 5.32572 16.6933 5.32468 16.6943 5.32324C16.6955 5.32171 16.6971 5.3199 16.6982 5.31836C16.6994 5.31685 16.7 5.31499 16.7012 5.31348C16.7023 5.31193 16.7039 5.31015 16.7051 5.30859C16.7062 5.30714 16.7069 5.30517 16.708 5.30371C16.7091 5.30226 16.7108 5.30127 16.7119 5.2998C16.7131 5.29823 16.7146 5.29651 16.7158 5.29492C16.7169 5.29341 16.7176 5.29156 16.7188 5.29004L16.7266 5.28027C16.7277 5.27877 16.7284 5.27691 16.7295 5.27539L16.7412 5.26074C16.7423 5.25923 16.743 5.25738 16.7441 5.25586L16.752 5.24609C16.7532 5.24441 16.7546 5.24192 16.7559 5.24023L16.7676 5.22559C16.7689 5.22387 16.7702 5.22145 16.7715 5.21973L16.7793 5.20996C16.7806 5.20822 16.7819 5.20585 16.7832 5.2041C16.7844 5.20247 16.7859 5.20085 16.7871 5.19922C16.7884 5.19749 16.7897 5.1951 16.791 5.19336L16.7988 5.18359L16.8066 5.17188C16.8079 5.17021 16.8093 5.16866 16.8105 5.16699C16.8119 5.16517 16.8141 5.16297 16.8154 5.16113C16.8167 5.15947 16.8181 5.15792 16.8193 5.15625L16.8271 5.14453C16.8285 5.14267 16.8306 5.14054 16.832 5.13867C16.8333 5.13701 16.8347 5.13546 16.8359 5.13379C16.8373 5.13197 16.8385 5.12975 16.8398 5.12793C16.8413 5.12604 16.8433 5.12397 16.8447 5.12207L16.8525 5.11035C16.854 5.10843 16.856 5.10642 16.8574 5.10449C16.8588 5.10266 16.86 5.10047 16.8613 5.09863C16.8628 5.09673 16.8648 5.09469 16.8662 5.09277C16.8676 5.09095 16.8687 5.08875 16.8701 5.08691C16.8716 5.085 16.8736 5.08298 16.875 5.08105C16.8764 5.07919 16.8775 5.07707 16.8789 5.0752L16.8887 5.06348C16.8901 5.0616 16.8912 5.0595 16.8926 5.05762C16.8941 5.05563 16.896 5.05375 16.8975 5.05176C16.899 5.04973 16.8998 5.04696 16.9014 5.04492L16.916 5.02734C16.9176 5.02529 16.9184 5.02258 16.9199 5.02051C16.9214 5.01849 16.9233 5.01668 16.9248 5.01465C16.9264 5.01256 16.9281 5.00991 16.9297 5.00781C16.9312 5.00581 16.9331 5.00396 16.9346 5.00195C16.9361 4.99987 16.9379 4.99721 16.9395 4.99512C16.9409 4.99324 16.942 4.99114 16.9434 4.98926C16.945 4.98713 16.9466 4.98456 16.9482 4.98242C16.9498 4.98039 16.9516 4.9786 16.9531 4.97656C16.9547 4.97442 16.9564 4.97188 16.958 4.96973C16.9595 4.9677 16.9614 4.9659 16.9629 4.96387L16.9775 4.94336C16.9791 4.94133 16.9809 4.93954 16.9824 4.9375C16.984 4.93541 16.9857 4.93277 16.9873 4.93066C16.989 4.92844 16.9915 4.92606 16.9932 4.92383L17.0127 4.89648C17.0144 4.89421 17.0168 4.89194 17.0186 4.88965L17.0332 4.86914C17.0349 4.86684 17.0373 4.86462 17.0391 4.8623C17.0407 4.86008 17.0423 4.8577 17.0439 4.85547C17.0457 4.85312 17.048 4.85001 17.0498 4.84766L17.0596 4.83398C17.0613 4.8317 17.0637 4.82945 17.0654 4.82715C17.0672 4.82479 17.0685 4.8217 17.0703 4.81934C17.0721 4.81698 17.0744 4.81487 17.0762 4.8125C17.078 4.81009 17.0802 4.80711 17.082 4.80469C17.0837 4.80245 17.0852 4.8001 17.0869 4.79785C17.0887 4.79542 17.0909 4.79248 17.0928 4.79004C17.0944 4.7878 17.096 4.78545 17.0977 4.7832C17.0995 4.78075 17.1017 4.77786 17.1035 4.77539C17.1053 4.773 17.1076 4.77096 17.1094 4.76855C17.1112 4.76612 17.1124 4.76319 17.1143 4.76074C17.1161 4.75825 17.1182 4.75543 17.1201 4.75293C17.1219 4.75054 17.1242 4.7485 17.126 4.74609C17.1279 4.74358 17.1299 4.74081 17.1318 4.73828C17.1337 4.73584 17.1349 4.73292 17.1367 4.73047C17.1386 4.72793 17.1407 4.7252 17.1426 4.72266C17.1444 4.72026 17.1466 4.71822 17.1484 4.71582L17.1953 4.65332C17.1973 4.65067 17.1992 4.6472 17.2012 4.64453L17.2129 4.62891C17.2149 4.62624 17.2177 4.62378 17.2197 4.62109C17.2217 4.61839 17.2236 4.61502 17.2256 4.6123L17.2373 4.59668C17.2394 4.59394 17.2421 4.59064 17.2441 4.58789C17.2461 4.58529 17.248 4.58269 17.25 4.58008C17.2521 4.57732 17.2538 4.57405 17.2559 4.57129C17.2579 4.56854 17.2606 4.56624 17.2627 4.56348C17.2648 4.56069 17.2665 4.55748 17.2686 4.55469C17.2706 4.55193 17.2733 4.54964 17.2754 4.54688C17.2775 4.5441 17.2792 4.54088 17.2812 4.53809C17.2834 4.53527 17.286 4.53213 17.2881 4.5293C17.29 4.5267 17.292 4.5241 17.2939 4.52148C17.2961 4.51864 17.2986 4.51555 17.3008 4.5127C17.3029 4.50989 17.3045 4.50673 17.3066 4.50391C17.3088 4.50104 17.3113 4.498 17.3135 4.49512C17.3156 4.49231 17.3172 4.48915 17.3193 4.48633L17.333 4.46875C17.3351 4.46595 17.3368 4.46277 17.3389 4.45996L17.3662 4.4248C17.3683 4.42199 17.37 4.41884 17.3721 4.41602L17.3857 4.39844C17.388 4.39542 17.3903 4.3917 17.3926 4.38867L17.4062 4.37109C17.4085 4.36805 17.4108 4.36438 17.4131 4.36133C17.4153 4.35838 17.4177 4.3555 17.4199 4.35254C17.4222 4.34948 17.4245 4.34584 17.4268 4.34277C17.4291 4.33968 17.4322 4.33709 17.4346 4.33398C17.4369 4.33089 17.4391 4.32733 17.4414 4.32422C17.4436 4.32125 17.446 4.31841 17.4482 4.31543L17.4619 4.2959C17.4642 4.29278 17.4674 4.29024 17.4697 4.28711L17.4834 4.26758C17.4858 4.26438 17.4888 4.26102 17.4912 4.25781L17.5049 4.23828C17.5073 4.23506 17.5103 4.23175 17.5127 4.22852C17.515 4.22538 17.5172 4.2219 17.5195 4.21875C17.5219 4.21553 17.5249 4.21222 17.5273 4.20898C17.5297 4.20582 17.5318 4.20239 17.5342 4.19922C17.5366 4.19594 17.5395 4.19274 17.542 4.18945C17.5444 4.18628 17.5464 4.18287 17.5488 4.17969L17.5645 4.16016C17.5669 4.15682 17.5688 4.15276 17.5713 4.14941L17.5869 4.12988C17.5894 4.1265 17.5922 4.12253 17.5947 4.11914C17.5971 4.11597 17.5992 4.11256 17.6016 4.10938C17.6041 4.10597 17.6068 4.10205 17.6094 4.09863H17.6104C18.9892 2.25181 20.9567 1 23.25 1Z" stroke="black" stroke-width="2"/>
</svg>
